<svg width="128" height="56" viewBox="0 0 128 56" fill="none" xmlns="http://www.w3.org/2000/svg">
<path d="M14.3171 24.908H6.50404L5.56226 26.3392H13.3753L14.3171 24.908Z" fill="#2C46B1"/>
<path d="M22.8415 10.5964H15.0284L14.0865 12.0278H21.8996L22.8415 10.5964Z" fill="#2C46B1"/>
<path d="M91.7369 24.908H83.9238L82.9819 26.3392H90.795L91.7369 24.908Z" fill="#2C46B1"/>
<path d="M100.261 10.5964H92.4482L91.5063 12.0278H99.3193L100.261 10.5964Z" fill="#2C46B1"/>
<path d="M68.3506 30.5908H66.6038V32.1096H68.3506V30.5908Z" fill="#2C46B1"/>
<path d="M40.2032 33.1728L35.3437 33.1597L35.3466 32.1098H36.9613V30.5909H35.3506L35.3926 14.8905H38.8298L39.7717 13.4592H35.3964L35.4002 12.0279H38.3063L39.2482 10.5966H35.404L35.4116 7.74801L30.1686 7.73389L30.1659 7.73787L28.7056 7.73389L28.7024 7.73874L27.1929 7.73498L25.3091 10.5972H26.8215L25.8801 12.0279L25.8799 12.0283H24.3672L23.4253 13.4594H24.9381L23.9965 14.8904H22.4834L14.0066 27.7721H9.78001L8.83818 29.2035H13.0647L10.5001 33.1008L10.4989 33.4974H7.65326L6.71143 34.9286H10.4944L10.4837 38.3625L27.1111 38.4085L27.1005 42.0852H21.0238L20.082 43.5165H27.0964L27.0882 46.3649L32.1919 46.3777V46.3791H38.566L39.5079 44.9478H35.3122L35.316 43.5165H37.7984L38.7402 42.0852H35.3199L35.3297 38.4296L37.2106 38.4347L37.2106 38.4308L38.7262 38.4349V38.4309L40.1891 38.4349L40.1908 37.7913H41.5885L42.5304 36.36H40.1947L40.1985 34.9286H43.1238L44.0657 33.4974H40.2024L40.2032 33.1728ZM27.1243 33.1375L20.6621 33.1202L23.3072 29.2035H23.3072L24.2739 27.7721L27.149 23.5148L27.1243 33.1375Z" fill="#2C46B1"/>
<path d="M117.623 33.1728L112.763 33.1597L112.766 32.1098H114.381V30.5909H112.77L112.812 14.8905H116.249L117.191 13.4592H112.816L112.82 12.0279H115.726L116.668 10.5966H112.824L112.831 7.74801L107.588 7.73389L107.586 7.73787L106.125 7.73389L106.122 7.73874L104.612 7.73498L102.729 10.5972H104.241L104.034 10.912L103.3 12.0279L103.299 12.0283H101.787L100.845 13.4594H102.358L101.416 14.8904H99.9029L91.4262 27.7722H87.1996L86.2578 29.2036H90.4844L87.9197 33.101L87.9185 33.4975H85.0729L84.1311 34.9287H87.914L87.9034 38.3626L104.531 38.4086L104.52 42.0853H98.4434L97.5016 43.5166H104.516L104.508 46.365L109.611 46.3778V46.3792H115.986L116.927 44.9479H112.732L112.736 43.5166H115.218L116.16 42.0853H112.739L112.749 38.4297L114.63 38.4348V38.4309L116.146 38.435V38.431L117.609 38.435L117.61 37.7914H119.008L119.95 36.3601H117.614L117.618 34.9287H120.543L121.485 33.4975H117.622L117.623 33.1728ZM104.544 33.1375L98.0818 33.1202L100.727 29.2035L101.693 27.7721L104.569 23.5148L104.544 33.1375Z" fill="#2C46B1"/>
</svg>
